<?xml version="1.0" encoding="utf-8"?>
<!-- Generator: Adobe Illustrator 25.0.1, SVG Export Plug-In . SVG Version: 6.00 Build 0)  -->
<svg version="1.1" id="Layer_1" xmlns="http://www.w3.org/2000/svg" xmlns:xlink="http://www.w3.org/1999/xlink" x="0px" y="0px"
	 viewBox="0 0 126 52" style="enable-background:new 0 0 126 52;" xml:space="preserve">
<style type="text/css">
	.st0{fill:#FFFFFF;}
	.st1{opacity:0.45;}
	.st2{fill:#E8E8E8;}
</style>
<path class="st0" d="M79.9,6.5v20.6h17.8v6.3H73V6.5H79.9z"/>
<path class="st0" d="M68.3,28.3l-2.5,5.3l-2.8-2c-0.7,0.6-1.6,1.1-2.6,1.4c-1.5,0.4-3,0.6-4.5,0.6h-14c-2.8,0-4.9,0-7.1-2.1
	s-1.9-7.6-1.9-9.5v-4.6c0-2.2,0.1-6.7,2.5-8.9c2-1.9,6.2-1.9,7.4-1.9h12.7c3,0,5,0.2,7.5,2.2s2.7,5.3,2.7,9.1v5.3
	c0,0.7-0.1,1.3-0.2,2c-0.1,0.4-0.2,0.7-0.3,1.1L68.3,28.3z M48.2,22.1l3-5.2l6.9,4.6v-5.1c0.1-1-0.3-2-1-2.8
	c-0.8-0.6-1.8-0.9-2.7-0.8h-9.7c-1-0.1-2.1,0.1-3,0.6c-1.1,0.8-1.3,2.2-1.3,3.7v5.4c-0.2,1.2,0.1,2.5,0.8,3.5
	c0.8,0.7,1.9,1.1,2.9,1.1h10.4c0.2,0,0.5,0,0.7-0.1c0.3-0.1,0.5-0.2,0.8-0.4L48.2,22.1z"/>
<path class="st0" d="M18.5,27.7c0.8,0.1,1.6-0.1,2.3-0.6c0.4-0.4,0.7-0.9,0.6-1.5V25c0-0.7-0.4-1.3-0.9-1.7
	c-0.8-0.3-1.7-0.4-2.5-0.4L7.7,22.7c-2.3,0-4.6-0.3-5.8-1.5c-1.3-1.4-2-3.3-1.9-5.2v-1.3c0-2.5,0.4-5.2,2.5-6.7
	c1.9-1.3,4-1.4,8.1-1.4H18c2.6,0,7.1,0.6,8.3,3c0.7,1.2,1,2.6,0.9,4v1.6h-6.7v-1c0-0.5-0.2-0.9-0.6-1.2c-0.4-0.3-0.9-0.4-1.4-0.4
	H9.4c-0.6-0.1-1.2,0-1.7,0.4c-0.5,0.4-0.8,1-0.8,1.6V15c0,0.6,0.2,1.1,0.6,1.6c0.4,0.3,1,0.4,1.5,0.4L20.6,17c2,0,4,0.4,5,1.1
	c1.9,1.3,2.4,3.9,2.4,6.4v1.2c0.2,1.9-0.3,3.9-1.5,5.4c-2,2.5-6.8,2.3-7.9,2.3H8c-2.3,0-4.7-0.3-5.9-1.3c-1.2-1-1.9-2.5-1.9-4.1
	v-3.5H7v0.8C6.9,26,7.1,26.5,7.3,27c0.4,0.7,1.2,0.7,2,0.7L18.5,27.7z"/>
<path class="st0" d="M125.7,33.2c-12.7-0.1-18-29.9-38.1-29.9h-7.3c20.1,0,25.4,29.8,38.1,29.9c1.2,0,1.1,0,0,0H125.7
	C124.7,33.2,126.8,33.2,125.7,33.2z"/>
<g class="st1">
	<path class="st2" d="M77.8,48.7V38.4h1.6v10.3H77.8z"/>
	<path class="st2" d="M11.4,48.5H9.2l-0.9-2.3H4.2l-0.8,2.3H1.2l4-10h2.2L11.4,48.5z M7.6,44.6l-1.4-3.7l-1.4,3.7H7.6z"/>
	<path class="st2" d="M21.3,43.4l-1.9,0.3c0-0.3-0.2-0.6-0.4-0.8c-0.3-0.2-0.6-0.3-0.9-0.3c-0.4,0-0.9,0.2-1.2,0.5
		c-0.3,0.5-0.5,1.1-0.4,1.7c-0.1,0.6,0.1,1.3,0.5,1.8c0.3,0.4,0.7,0.5,1.2,0.5c0.3,0,0.7-0.1,0.9-0.3c0.3-0.3,0.4-0.7,0.5-1.1
		l1.9,0.3c-0.2,0.8-0.6,1.4-1.1,1.9c-0.7,0.5-1.5,0.7-2.3,0.7c-1,0-1.9-0.3-2.6-1c-0.7-0.8-1.1-1.7-1-2.8c-0.1-1,0.3-2,1-2.8
		c0.7-0.7,1.6-1,2.6-1c0.8,0,1.5,0.2,2.1,0.6C20.8,42.1,21.2,42.8,21.3,43.4z"/>
	<path class="st2" d="M31.4,43.4l-1.9,0.3c0-0.3-0.2-0.6-0.4-0.8c-0.3-0.2-0.6-0.3-0.9-0.3c-0.4,0-0.9,0.2-1.2,0.5
		c-0.3,0.5-0.5,1.1-0.4,1.7c-0.1,0.6,0.1,1.3,0.4,1.8c0.3,0.4,0.7,0.5,1.2,0.5c0.3,0,0.7-0.1,0.9-0.3c0.3-0.3,0.5-0.7,0.5-1.1
		l1.9,0.3c-0.2,0.8-0.6,1.4-1.2,1.9c-0.7,0.5-1.5,0.7-2.3,0.7c-1,0-1.9-0.3-2.6-1c-0.7-0.8-1-1.8-1-2.8c-0.1-1,0.3-2,1-2.8
		c0.7-0.7,1.6-1,2.6-1c0.8,0,1.5,0.2,2.1,0.6C30.8,42.1,31.2,42.7,31.4,43.4z"/>
	<path class="st2" d="M34.5,44.8c0-0.6,0.2-1.3,0.5-1.8c0.3-0.6,0.8-1.1,1.4-1.4c0.6-0.3,1.3-0.5,2-0.5c1,0,2,0.3,2.8,1.1
		c0.7,0.7,1.1,1.7,1.1,2.7c0.1,2-1.5,3.7-3.6,3.8c-0.1,0-0.2,0-0.2,0c-0.7,0-1.3-0.2-1.9-0.5c-0.6-0.3-1.1-0.8-1.4-1.3
		C34.7,46.3,34.5,45.6,34.5,44.8z M36.5,44.9c0,0.6,0.1,1.2,0.5,1.7c0.6,0.7,1.7,0.8,2.5,0.1c0,0,0.1-0.1,0.1-0.1
		c0.4-0.5,0.6-1.1,0.5-1.7c0-0.6-0.1-1.2-0.5-1.6c-0.6-0.7-1.7-0.8-2.4-0.2c-0.1,0-0.1,0.1-0.2,0.2C36.6,43.7,36.5,44.3,36.5,44.9z"
		/>
	<path class="st2" d="M50.1,48.5v-1.1c-0.3,0.4-0.6,0.7-1.1,0.9c-0.4,0.2-0.9,0.3-1.4,0.3c-0.5,0-0.9-0.1-1.3-0.3
		c-0.4-0.2-0.7-0.5-0.9-0.9c-0.2-0.5-0.3-1.1-0.3-1.6v-4.6h2v3.3c0,0.6,0,1.3,0.1,1.9c0.1,0.2,0.2,0.4,0.4,0.5
		c0.2,0.1,0.5,0.2,0.7,0.2c0.3,0,0.6-0.1,0.9-0.3c0.2-0.2,0.4-0.4,0.5-0.7c0.1-0.7,0.2-1.3,0.2-2v-3h2v7.2L50.1,48.5z"/>
	<path class="st2" d="M61.7,48.5h-2v-3.7c0-0.5,0-1-0.1-1.5c-0.1-0.2-0.2-0.4-0.4-0.5c-0.2-0.1-0.4-0.2-0.7-0.2
		c-0.3,0-0.6,0.1-0.9,0.3c-0.3,0.2-0.5,0.4-0.6,0.7c-0.1,0.5-0.2,1.1-0.2,1.7v3.3h-2v-7.2h1.8v1.1c0.6-0.8,1.5-1.2,2.4-1.2
		c0.4,0,0.8,0.1,1.2,0.2c0.3,0.1,0.6,0.3,0.8,0.6c0.2,0.2,0.3,0.5,0.4,0.8c0.1,0.4,0.1,0.9,0.1,1.3L61.7,48.5z"/>
	<path class="st2" d="M68.9,41.3v1.5h-1.3v2.9c0,0.3,0,0.7,0,1c0,0.1,0.1,0.2,0.2,0.2c0.1,0.1,0.2,0.1,0.3,0.1
		c0.3,0,0.5-0.1,0.8-0.2l0.2,1.5c-0.5,0.2-1,0.3-1.6,0.3c-0.3,0-0.7,0-1-0.2c-0.2-0.1-0.5-0.2-0.6-0.4c-0.1-0.2-0.2-0.5-0.3-0.8
		c0-0.4,0-0.9,0-1.3v-3.2h-0.9v-1.5h0.9v-1.4l2-1.1v2.5H68.9z"/>
	<path class="st2" d="M88.2,48.5v-10h7.6v1.7h-5.5v2.2h5.1v1.7h-5.1v2.7H96v1.7L88.2,48.5z"/>
	<path class="st2" d="M99.1,48.5v-10h4.3c0.8,0,1.6,0.1,2.4,0.3c0.5,0.2,0.9,0.5,1.2,1c0.3,0.5,0.5,1,0.4,1.6c0,0.7-0.2,1.3-0.7,1.8
		c-0.5,0.5-1.2,0.9-2,0.9c0.4,0.2,0.8,0.5,1.1,0.8c0.4,0.5,0.8,1,1.2,1.6l1.2,1.9h-2.5l-1.5-2.2c-0.3-0.5-0.7-1-1.1-1.5
		c-0.2-0.2-0.4-0.3-0.6-0.4c-0.3-0.1-0.7-0.1-1-0.1h-0.4v4.2L99.1,48.5z M101.2,42.8h1.5c0.6,0,1.2,0,1.8-0.1
		c0.2-0.1,0.4-0.2,0.6-0.4c0.1-0.2,0.2-0.5,0.2-0.8c0-0.3-0.1-0.6-0.3-0.8c-0.2-0.2-0.5-0.3-0.8-0.4c-0.2,0-0.7,0-1.5,0h-1.6V42.8z"
		/>
	<path class="st2" d="M110.9,48.5v-10h3.3c0.8,0,1.6,0,2.4,0.2c0.6,0.2,1.1,0.5,1.5,1c0.4,0.6,0.6,1.2,0.6,1.9
		c0,0.5-0.1,1.1-0.3,1.5c-0.2,0.4-0.5,0.7-0.9,1c-0.3,0.2-0.7,0.4-1.1,0.5c-0.7,0.1-1.4,0.2-2.1,0.1h-1.3v3.8H110.9z M112.9,40.2
		v2.8h1.1c0.5,0,1.1,0,1.6-0.2c0.7-0.3,1.1-1.1,0.8-1.8c-0.1-0.1-0.1-0.3-0.2-0.4c-0.2-0.2-0.5-0.4-0.8-0.4c-0.5-0.1-1-0.1-1.5-0.1
		L112.9,40.2z"/>
</g>
</svg>
