<svg xmlns="http://www.w3.org/2000/svg" viewBox="0 0 126 52"><path d="M79.93,6.47V27.09H97.71v6.33H73V6.47Z" style="fill:#651eff"/><path d="M68.26,28.26l-2.52,5.29-2.85-2a6.78,6.78,0,0,1-2.56,1.4,18.54,18.54,0,0,1-4.55.6h-14c-2.82,0-4.94,0-7.14-2.13s-1.94-7.56-1.94-9.53V17.28c0-2.2.11-6.67,2.49-8.87,2-1.9,6.23-1.93,7.41-1.93H55.33c3,0,5,.19,7.49,2.16s2.71,5.33,2.71,9.13V23.1a8.51,8.51,0,0,1-.2,2,7.19,7.19,0,0,1-.3,1.07ZM48.19,22.1l3-5.23,6.9,4.63V16.37a3.57,3.57,0,0,0-1-2.77,3.49,3.49,0,0,0-2.73-.76h-9.7a5.25,5.25,0,0,0-3,.57c-1.12.83-1.29,2.16-1.29,3.73V22.5A5.35,5.35,0,0,0,41.14,26a5,5,0,0,0,2.94,1.13H54.45a3.21,3.21,0,0,0,.74-.06,4.89,4.89,0,0,0,.79-.4Z" style="fill:#651eff"/><path d="M18.49,27.71a3.55,3.55,0,0,0,2.32-.6,1.64,1.64,0,0,0,.61-1.47V25a2.24,2.24,0,0,0-.91-1.7A5.91,5.91,0,0,0,18,22.94L7.67,22.68c-2.29,0-4.55-.33-5.76-1.53A7.41,7.41,0,0,1,0,15.92V14.59c0-2.53.41-5.23,2.55-6.67,1.94-1.26,4-1.43,8.06-1.43H18c2.65,0,7.08.56,8.32,3a7.72,7.72,0,0,1,.91,4v1.57H20.57v-1A1.47,1.47,0,0,0,20,12.82a1.86,1.86,0,0,0-1.35-.4H9.43a2.16,2.16,0,0,0-1.7.4,2.13,2.13,0,0,0-.83,1.63V15a2.13,2.13,0,0,0,.56,1.57,1.93,1.93,0,0,0,1.47.36L20.57,17c2,0,4,.37,5.05,1.1C27.47,19.41,28,22,28,24.51v1.23a7.5,7.5,0,0,1-1.53,5.39c-2,2.54-6.79,2.31-7.9,2.31H8c-2.32,0-4.67-.33-5.88-1.26A5.41,5.41,0,0,1,.21,28.11V24.65H7v.77A2.56,2.56,0,0,0,7.35,27c.44.73,1.18.73,2,.73Z" style="fill:#651eff"/><path d="M125.65,33.19c-12.73-.06-18-29.89-38.1-29.89H80.27c20.09,0,25.37,29.83,38.1,29.89,1.15,0,1.1,0,0,0h7.28C124.65,33.21,126.8,33.2,125.65,33.19Z" style="fill:#651eff"/><g style="opacity:0.45"><path d="M77.85,48.7V38.39h1.56V48.7Z" style="fill:#4f4f4f"/><path d="M11.42,48.53H9.18l-.89-2.26H4.21l-.85,2.26H1.18l4-10H7.33ZM7.63,44.59l-1.41-3.7-1.38,3.7Z" style="fill:#4f4f4f"/><path d="M21.34,43.45l-1.93.34a1.32,1.32,0,0,0-.44-.85,1.36,1.36,0,0,0-.89-.29,1.48,1.48,0,0,0-1.17.49,2.49,2.49,0,0,0-.44,1.65,2.83,2.83,0,0,0,.45,1.82,1.46,1.46,0,0,0,1.18.53,1.33,1.33,0,0,0,.92-.31,1.91,1.91,0,0,0,.5-1.06l1.92.32A3.3,3.3,0,0,1,20.29,48,3.6,3.6,0,0,1,18,48.7a3.43,3.43,0,0,1-2.58-1,3.8,3.8,0,0,1-1-2.77,3.84,3.84,0,0,1,1-2.79,3.49,3.49,0,0,1,2.62-1,3.63,3.63,0,0,1,2.15.57A3.08,3.08,0,0,1,21.34,43.45Z" style="fill:#4f4f4f"/><path d="M31.36,43.45l-1.93.34a1.32,1.32,0,0,0-.44-.85,1.37,1.37,0,0,0-.9-.29,1.47,1.47,0,0,0-1.16.49,2.49,2.49,0,0,0-.44,1.65,2.9,2.9,0,0,0,.44,1.82,1.48,1.48,0,0,0,1.19.53,1.31,1.31,0,0,0,.91-.31,1.85,1.85,0,0,0,.51-1.06l1.92.32A3.3,3.3,0,0,1,30.31,48,3.63,3.63,0,0,1,28,48.7a3.47,3.47,0,0,1-2.59-1,3.84,3.84,0,0,1-1-2.77,3.84,3.84,0,0,1,1-2.79,3.49,3.49,0,0,1,2.62-1,3.65,3.65,0,0,1,2.15.57A3.08,3.08,0,0,1,31.36,43.45Z" style="fill:#4f4f4f"/><path d="M34.5,44.82A3.83,3.83,0,0,1,35,43a3.19,3.19,0,0,1,1.36-1.36,4,4,0,0,1,2-.47,3.74,3.74,0,0,1,2.75,1.06,3.66,3.66,0,0,1,1.07,2.69,3.69,3.69,0,0,1-3.81,3.8,4.38,4.38,0,0,1-1.94-.45A3.14,3.14,0,0,1,35,46.93,4.3,4.3,0,0,1,34.5,44.82Zm2,.1A2.4,2.4,0,0,0,37,46.57a1.74,1.74,0,0,0,2.58,0,2.43,2.43,0,0,0,.52-1.66,2.36,2.36,0,0,0-.52-1.63,1.72,1.72,0,0,0-2.58,0A2.39,2.39,0,0,0,36.5,44.92Z" style="fill:#4f4f4f"/><path d="M50.08,48.53V47.45a2.76,2.76,0,0,1-1.06.91,3,3,0,0,1-1.39.34,2.79,2.79,0,0,1-1.34-.32,2,2,0,0,1-.86-.9,4.07,4.07,0,0,1-.26-1.6V41.31h2v3.32a9.42,9.42,0,0,0,.1,1.87,1,1,0,0,0,.4.54,1.25,1.25,0,0,0,.72.2,1.54,1.54,0,0,0,.9-.27,1.36,1.36,0,0,0,.54-.66,7.44,7.44,0,0,0,.15-2v-3h2v7.22Z" style="fill:#4f4f4f"/><path d="M61.68,48.53h-2V44.85a5.88,5.88,0,0,0-.12-1.52,1.14,1.14,0,0,0-.41-.53,1.18,1.18,0,0,0-.68-.19,1.6,1.6,0,0,0-.91.27,1.37,1.37,0,0,0-.56.72,6.12,6.12,0,0,0-.15,1.66v3.27h-2V41.31h1.82v1.06a3,3,0,0,1,2.44-1.22,2.9,2.9,0,0,1,1.19.23,2,2,0,0,1,.81.58,2,2,0,0,1,.38.8,6,6,0,0,1,.11,1.29Z" style="fill:#4f4f4f"/><path d="M68.92,41.31v1.52H67.58v2.92a6.42,6.42,0,0,0,0,1,.43.43,0,0,0,.17.24.58.58,0,0,0,.33.09,2.63,2.63,0,0,0,.79-.18l.17,1.48a4,4,0,0,1-1.55.29,2.4,2.4,0,0,1-1-.18,1.34,1.34,0,0,1-.63-.44,1.84,1.84,0,0,1-.27-.75A9,9,0,0,1,65.61,46V42.83h-.89V41.31h.89V39.88l2-1.12v2.55Z" style="fill:#4f4f4f"/><path d="M88.18,48.53v-10h7.57v1.69H90.24v2.21h5.13v1.68H90.24v2.71H96v1.68Z" style="fill:#4f4f4f"/><path d="M99.13,48.53v-10h4.34a7.56,7.56,0,0,1,2.38.27,2.33,2.33,0,0,1,1.19,1,2.8,2.8,0,0,1,.44,1.57,2.62,2.62,0,0,1-.67,1.85,3.21,3.21,0,0,1-2,.92,5.21,5.21,0,0,1,1.1.84,11.45,11.45,0,0,1,1.18,1.62l1.24,1.94h-2.46l-1.49-2.17a13.42,13.42,0,0,0-1.09-1.46,1.71,1.71,0,0,0-.62-.42,3.66,3.66,0,0,0-1-.11h-.42v4.16Zm2.06-5.75h1.53a8.15,8.15,0,0,0,1.85-.12,1.14,1.14,0,0,0,.58-.42,1.28,1.28,0,0,0,.21-.75,1.17,1.17,0,0,0-.28-.82,1.32,1.32,0,0,0-.77-.39c-.17,0-.67,0-1.51,0h-1.61Z" style="fill:#4f4f4f"/><path d="M110.86,48.53v-10h3.31a12.25,12.25,0,0,1,2.45.15,2.73,2.73,0,0,1,1.47,1,3.07,3.07,0,0,1,.59,1.94,3.13,3.13,0,0,1-.34,1.54,2.81,2.81,0,0,1-.87,1,3,3,0,0,1-1.07.47,11.61,11.61,0,0,1-2.14.14h-1.34v3.76Zm2.06-8.28v2.83h1.13a5.27,5.27,0,0,0,1.63-.16,1.37,1.37,0,0,0,.55-2.16,1.44,1.44,0,0,0-.83-.44,9.49,9.49,0,0,0-1.49-.07Z" style="fill:#4f4f4f"/></g></svg>